<svg xmlns="http://www.w3.org/2000/svg" viewBox="0 0 200 200"><!-- Turkish Van - white body with color patches --><ellipse cx="100" cy="130" rx="48" ry="50" fill="#f5f5f5"/><circle cx="100" cy="78" r="42" fill="#ffffff"/><!-- ears --><polygon points="68,52 55,18 85,40" fill="#ffffff"/><polygon points="132,52 145,18 115,40" fill="#ffffff"/><polygon points="72,47 62,28 82,40" fill="#e8a0a0"/><polygon points="128,47 138,28 118,40" fill="#e8a0a0"/><!-- red patch on head --><ellipse cx="100" cy="55" rx="16" ry="10" fill="#d44030" opacity="0.8"/><ellipse cx="90" cy="52" rx="10" ry="8" fill="#e05040" opacity="0.7"/><ellipse cx="110" cy="52" rx="10" ry="8" fill="#e05040" opacity="0.7"/><!-- face --><circle cx="82" cy="72" r="10" fill="#fff"/><circle cx="118" cy="72" r="10" fill="#fff"/><circle cx="83" cy="71" r="6" fill="#5b9bd5"/><circle cx="117" cy="71" r="6" fill="#5b9bd5"/><ellipse cx="83" cy="70" rx="3" ry="5" fill="#111"/><ellipse cx="117" cy="70" rx="3" ry="5" fill="#111"/><ellipse cx="100" cy="82" rx="4" ry="3" fill="#e8a0a0"/><ellipse cx="100" cy="82" rx="2.5" ry="2" fill="#333"/><!-- whiskers --><line x1="70" y1="78" x2="22" y2="72" stroke="#c0b0a0" stroke-width="0.8"/><line x1="70" y1="82" x2="20" y2="86" stroke="#c0b0a0" stroke-width="0.8"/><line x1="130" y1="78" x2="178" y2="72" stroke="#c0b0a0" stroke-width="0.8"/><line x1="130" y1="82" x2="180" y2="86" stroke="#c0b0a0" stroke-width="0.8"/><!-- red patch on tail area --><ellipse cx="50" cy="165" rx="14" ry="12" fill="#d44030" opacity="0.8"/><!-- paws --><ellipse cx="74" cy="172" rx="13" ry="7" fill="#ffffff"/><ellipse cx="126" cy="172" rx="13" ry="7" fill="#ffffff"/><!-- purple bow tie (target) --><polygon points="84,105 100,113 116,105 116,125 100,117 84,125" fill="#9c27b0"/><circle cx="100" cy="115" r="4" fill="#7b1fa2"/></svg>