<svg xmlns="http://www.w3.org/2000/svg" viewBox="0 0 200 200"><!-- Ginger/Orange Tabby --><ellipse cx="100" cy="130" rx="50" ry="50" fill="#e87a20"/><circle cx="100" cy="78" r="45" fill="#f09030"/><!-- ears --><polygon points="65,52 52,18 82,42" fill="#f09030"/><polygon points="135,52 148,18 118,42" fill="#f09030"/><polygon points="70,47 60,28 80,42" fill="#f5b080"/><polygon points="130,47 140,28 120,42" fill="#f5b080"/><!-- face --><circle cx="80" cy="72" r="5" fill="#222"/><circle cx="120" cy="72" r="5" fill="#222"/><ellipse cx="100" cy="84" rx="7" ry="5" fill="#f5a0a0"/><ellipse cx="100" cy="84" rx="4" ry="3" fill="#333"/><!-- freckles --><circle cx="88" cy="80" r="1.5" fill="#c86020"/><circle cx="93" cy="82" r="1.5" fill="#c86020"/><circle cx="107" cy="82" r="1.5" fill="#c86020"/><circle cx="112" cy="80" r="1.5" fill="#c86020"/><!-- whiskers --><line x1="68" y1="78" x2="18" y2="72" stroke="#c86020" stroke-width="1"/><line x1="68" y1="82" x2="16" y2="86" stroke="#c86020" stroke-width="1"/><line x1="132" y1="78" x2="182" y2="72" stroke="#c86020" stroke-width="1"/><line x1="132" y1="82" x2="184" y2="86" stroke="#c86020" stroke-width="1"/><!-- stripe on head --><path d="M90,38 L95,55 L100,38 L105,55 L110,38" fill="none" stroke="#d07020" stroke-width="3" stroke-linecap="round"/><!-- paws --><ellipse cx="74" cy="172" rx="14" ry="8" fill="#f09030"/><ellipse cx="126" cy="172" rx="14" ry="8" fill="#f09030"/><!-- teal bow tie (target) --><polygon points="84,105 100,113 116,105 116,125 100,117 84,125" fill="#00bcd4"/><circle cx="100" cy="115" r="4.5" fill="#0097a7"/></svg>