<svg xmlns="http://www.w3.org/2000/svg" viewBox="0 0 200 200"><!-- Black Cat --><ellipse cx="100" cy="132" rx="48" ry="52" fill="#2a2a2a"/><circle cx="100" cy="78" r="42" fill="#333"/><!-- ears --><polygon points="68,55 55,20 88,42" fill="#333"/><polygon points="132,55 145,20 112,42" fill="#333"/><polygon points="72,50 62,30 84,42" fill="#555"/><polygon points="128,50 138,30 116,42" fill="#555"/><!-- face --><circle cx="82" cy="72" r="7" fill="#4ade80"/><circle cx="118" cy="72" r="7" fill="#4ade80"/><ellipse cx="82" cy="72" rx="3" ry="6" fill="#111"/><ellipse cx="118" cy="72" rx="3" ry="6" fill="#111"/><ellipse cx="100" cy="85" rx="7" ry="4" fill="#555"/><ellipse cx="100" cy="85" rx="4" ry="2.5" fill="#222"/><!-- whiskers --><line x1="70" y1="80" x2="22" y2="74" stroke="#555" stroke-width="1"/><line x1="70" y1="84" x2="20" y2="87" stroke="#555" stroke-width="1"/><line x1="130" y1="80" x2="178" y2="74" stroke="#555" stroke-width="1"/><line x1="130" y1="84" x2="180" y2="87" stroke="#555" stroke-width="1"/><!-- tail swoosh --><path d="M50,170 Q10,140 15,100 Q18,70 35,90" fill="none" stroke="#333" stroke-width="6" stroke-linecap="round"/><!-- paws --><ellipse cx="74" cy="175" rx="13" ry="8" fill="#333"/><ellipse cx="126" cy="175" rx="13" ry="8" fill="#333"/><!-- silver crescent necklace (target) --><circle cx="100" cy="118" r="10" fill="none" stroke="#c0c0c0" stroke-width="2.5"/><circle cx="107" cy="114" r="7" fill="#0d0d18"/><circle cx="100" cy="118" r="3" fill="#e8e8e8"/></svg>