<svg xmlns="http://www.w3.org/2000/svg" viewBox="0 0 200 200"><!-- Somali Cat - red-brown long hair fox tail --><ellipse cx="100" cy="130" rx="50" ry="50" fill="#b86030"/><circle cx="100" cy="78" r="45" fill="#c87040"/><!-- ears with tufts --><polygon points="65,52 52,18 82,42" fill="#c87040"/><polygon points="135,52 148,18 118,42" fill="#c87040"/><polygon points="70,47 60,28 80,42" fill="#d49070"/><polygon points="130,47 140,28 120,42" fill="#d49070"/><path d="M56,20 L58,10" stroke="#c87040" stroke-width="2" stroke-linecap="round"/><path d="M144,20 L142,10" stroke="#c87040" stroke-width="2" stroke-linecap="round"/><!-- eyes almond shaped --><ellipse cx="82" cy="72" rx="8" ry="10" fill="#fff"/><ellipse cx="118" cy="72" rx="8" ry="10" fill="#fff"/><ellipse cx="83" cy="71" rx="5" ry="7" fill="#e8a828"/><ellipse cx="117" cy="71" rx="5" ry="7" fill="#e8a828"/><ellipse cx="83" cy="70" rx="2.5" ry="5" fill="#111"/><ellipse cx="117" cy="70" rx="2.5" ry="5" fill="#111"/><!-- nose --><ellipse cx="100" cy="84" rx="5" ry="3.5" fill="#d49070"/><!-- mouth --><path d="M92,88 Q100,94 108,88" fill="none" stroke="#904820" stroke-width="1.2"/><!-- whiskers --><line x1="70" y1="80" x2="20" y2="74" stroke="#a06030" stroke-width="0.8"/><line x1="70" y1="84" x2="18" y2="88" stroke="#a06030" stroke-width="0.8"/><line x1="130" y1="80" x2="180" y2="74" stroke="#a06030" stroke-width="0.8"/><line x1="130" y1="84" x2="182" y2="88" stroke="#a06030" stroke-width="0.8"/><!-- fluffy tail --><path d="M55,170 Q15,158 12,120 Q10,95 38,100" fill="none" stroke="#b86030" stroke-width="10" stroke-linecap="round"/><path d="M55,170 Q15,158 12,120 Q10,95 38,100" fill="none" stroke="#d08050" stroke-width="5" stroke-linecap="round"/><!-- paws --><ellipse cx="74" cy="172" rx="14" ry="8" fill="#c87040"/><ellipse cx="126" cy="172" rx="14" ry="8" fill="#c87040"/><!-- indigo cape (target) --><path d="M60,100 Q100,112 140,100 L135,140 Q100,148 65,140 Z" fill="#3f51b5"/><circle cx="100" cy="102" r="7" fill="#5c6bc0"/></svg>