<svg xmlns="http://www.w3.org/2000/svg" viewBox="0 0 200 200"><!-- Gray tabby / Russian Blue --><ellipse cx="100" cy="130" rx="45" ry="48" fill="#8a9ba8"/><circle cx="100" cy="78" r="40" fill="#95a8b5"/><!-- ears --><polygon points="68,54 55,20 85,42" fill="#95a8b5"/><polygon points="132,54 145,20 115,42" fill="#95a8b5"/><polygon points="72,49 62,30 82,42" fill="#d4a0a0"/><polygon points="128,49 138,30 118,42" fill="#d4a0a0"/><!-- eyes - big and bright --><circle cx="82" cy="70" r="12" fill="#fff"/><circle cx="118" cy="70" r="12" fill="#fff"/><circle cx="83" cy="69" r="8" fill="#7cfc00"/><circle cx="117" cy="69" r="8" fill="#7cfc00"/><ellipse cx="83" cy="69" rx="3" ry="5" fill="#111"/><ellipse cx="117" cy="69" rx="3" ry="5" fill="#111"/><!-- nose --><ellipse cx="100" cy="82" rx="4" ry="3" fill="#d4a0a0"/><!-- slight smile --><path d="M93,86 Q100,91 107,86" fill="none" stroke="#6a7a88" stroke-width="1.2"/><!-- whiskers --><line x1="70" y1="78" x2="22" y2="72" stroke="#7a8a98" stroke-width="0.8"/><line x1="70" y1="82" x2="20" y2="86" stroke="#7a8a98" stroke-width="0.8"/><line x1="130" y1="78" x2="178" y2="72" stroke="#7a8a98" stroke-width="0.8"/><line x1="130" y1="82" x2="180" y2="86" stroke="#7a8a98" stroke-width="0.8"/><!-- tail --><path d="M55,168 Q20,150 25,110 Q28,85 45,100" fill="none" stroke="#8a9ba8" stroke-width="6" stroke-linecap="round"/><!-- paws --><ellipse cx="76" cy="172" rx="12" ry="7" fill="#95a8b5"/><ellipse cx="124" cy="172" rx="12" ry="7" fill="#95a8b5"/><!-- scarf (target) --><path d="M72,105 Q100,118 128,105" fill="none" stroke="#f39c12" stroke-width="6" stroke-linecap="round"/><path d="M120,108 L126,140 L116,138" fill="#f39c12"/><line x1="118" y1="110" x2="122" y2="135" stroke="#d4a020" stroke-width="1.5"/></svg>