<svg xmlns="http://www.w3.org/2000/svg" viewBox="0 0 200 200"><!-- Scottish Fold - round chubby face --><ellipse cx="100" cy="125" rx="55" ry="48" fill="#f5e6d0"/><circle cx="100" cy="70" r="52" fill="#f5e6d0"/><!-- folded ears --><ellipse cx="55" cy="40" rx="18" ry="10" fill="#e8d5b8" transform="rotate(-20,55,40)"/><ellipse cx="145" cy="40" rx="18" ry="10" fill="#e8d5b8" transform="rotate(20,145,40)"/><!-- big eyes --><circle cx="80" cy="68" r="14" fill="#fff"/><circle cx="120" cy="68" r="14" fill="#fff"/><circle cx="82" cy="67" r="9" fill="#7ec8e3"/><circle cx="118" cy="67" r="9" fill="#7ec8e3"/><circle cx="84" cy="65" r="5" fill="#2a2a2a"/><circle cx="116" cy="65" r="5" fill="#2a2a2a"/><circle cx="86" cy="62" r="2" fill="#fff"/><circle cx="118" cy="62" r="2" fill="#fff"/><!-- tiny nose --><ellipse cx="100" cy="80" rx="5" ry="3.5" fill="#f0a0a0"/><!-- smile --><path d="M90,85 Q100,92 110,85" fill="none" stroke="#c9a89a" stroke-width="1.5" stroke-linecap="round"/><!-- paws --><ellipse cx="72" cy="168" rx="16" ry="8" fill="#e8d5b8"/><ellipse cx="128" cy="168" rx="16" ry="8" fill="#e8d5b8"/><!-- sweater (target) --><rect x="60" y="100" width="80" height="30" rx="10" fill="#9b59b6"/><rect x="60" y="100" width="80" height="8" rx="4" fill="#8e44ad"/><line x1="70" y1="110" x2="70" y2="128" stroke="#8e44ad" stroke-width="2"/><line x1="130" y1="110" x2="130" y2="128" stroke="#8e44ad" stroke-width="2"/></svg>