<svg xmlns="http://www.w3.org/2000/svg" viewBox="0 0 200 200"><!-- Calico Cat - tri-color --><ellipse cx="100" cy="128" rx="48" ry="50" fill="#f0e6d0"/><circle cx="100" cy="75" r="42" fill="#f5edd8"/><!-- ears --><polygon points="68,52 55,18 85,40" fill="#f5edd8"/><polygon points="132,52 145,18 115,40" fill="#f5edd8"/><polygon points="72,47 62,28 82,40" fill="#f5b0b0"/><polygon points="128,47 138,28 118,40" fill="#f5b0b0"/><!-- calico patches on body --><ellipse cx="68" cy="120" rx="18" ry="20" fill="#e87a20" opacity="0.7"/><ellipse cx="130" cy="135" rx="16" ry="18" fill="#333" opacity="0.7"/><!-- eyes: heterochromia --><circle cx="84" cy="70" r="10" fill="#fff"/><circle cx="116" cy="70" r="10" fill="#fff"/><circle cx="85" cy="69" r="6" fill="#4ade80"/><circle cx="115" cy="69" r="6" fill="#60a5fa"/><circle cx="86" cy="68" r="3" fill="#111"/><circle cx="114" cy="68" r="3" fill="#111"/><!-- split face coloring --><path d="M100,50 L100,100" stroke="#e87a20" stroke-width="1" opacity="0.4"/><ellipse cx="100" cy="82" rx="6" ry="4" fill="#f5a0a0"/><ellipse cx="100" cy="82" rx="3.5" ry="2.5" fill="#333"/><!-- whiskers --><line x1="70" y1="78" x2="22" y2="72" stroke="#b8a088" stroke-width="0.8"/><line x1="70" y1="82" x2="20" y2="86" stroke="#b8a088" stroke-width="0.8"/><line x1="130" y1="78" x2="178" y2="72" stroke="#b8a088" stroke-width="0.8"/><line x1="130" y1="82" x2="180" y2="86" stroke="#b8a088" stroke-width="0.8"/><!-- paws --><ellipse cx="74" cy="172" rx="13" ry="7" fill="#f0e6d0"/><ellipse cx="126" cy="172" rx="13" ry="7" fill="#f0e6d0"/><!-- orange capelet (target) --><path d="M55,102 Q100,115 145,102 L140,145 Q100,152 60,145 Z" fill="#e67e22"/><path d="M55,102 Q100,108 145,102" fill="none" stroke="#d35400" stroke-width="2"/><circle cx="100" cy="105" r="3" fill="#ffd700"/></svg>