<svg xmlns="http://www.w3.org/2000/svg" viewBox="0 0 200 200"><!-- Bengal Cat - spotted/leopard pattern --><ellipse cx="100" cy="130" rx="50" ry="50" fill="#e8d5a8"/><circle cx="100" cy="78" r="45" fill="#f0e0b8"/><!-- ears --><polygon points="65,52 52,18 82,42" fill="#f0e0b8"/><polygon points="135,52 148,18 118,42" fill="#f0e0b8"/><polygon points="70,47 60,28 80,42" fill="#d4a0a0"/><polygon points="130,47 140,28 120,42" fill="#d4a0a0"/><!-- face --><circle cx="80" cy="72" r="5" fill="#222"/><circle cx="120" cy="72" r="5" fill="#222"/><ellipse cx="100" cy="84" rx="7" ry="5" fill="#d4a0a0"/><ellipse cx="100" cy="84" rx="4" ry="3" fill="#333"/><!-- spots/rosettes --><ellipse cx="70" cy="105" rx="5" ry="4" fill="#8b5e3c" opacity="0.7"/><ellipse cx="75" cy="95" rx="4" ry="3" fill="#8b5e3c" opacity="0.6"/><ellipse cx="130" cy="105" rx="5" ry="4" fill="#8b5e3c" opacity="0.7"/><ellipse cx="125" cy="95" rx="4" ry="3" fill="#8b5e3c" opacity="0.6"/><ellipse cx="100" cy="140" rx="5" ry="4" fill="#8b5e3c" opacity="0.7"/><ellipse cx="85" cy="145" rx="4" ry="3" fill="#8b5e3c" opacity="0.6"/><ellipse cx="115" cy="145" rx="4" ry="3" fill="#8b5e3c" opacity="0.6"/><ellipse cx="95" cy="118" rx="4" ry="3" fill="#8b5e3c" opacity="0.6"/><!-- whiskers --><line x1="68" y1="78" x2="18" y2="72" stroke="#a08060" stroke-width="0.8"/><line x1="68" y1="82" x2="16" y2="86" stroke="#a08060" stroke-width="0.8"/><line x1="132" y1="78" x2="182" y2="72" stroke="#a08060" stroke-width="0.8"/><line x1="132" y1="82" x2="184" y2="86" stroke="#a08060" stroke-width="0.8"/><!-- stripe on head --><path d="M90,38 L95,55 L100,38 L105,55 L110,38" fill="none" stroke="#8b5e3c" stroke-width="2.5" stroke-linecap="round"/><!-- paws --><ellipse cx="74" cy="172" rx="14" ry="8" fill="#f0e0b8"/><ellipse cx="126" cy="172" rx="14" ry="8" fill="#f0e0b8"/><!-- coral collar (target) --><rect x="72" y="105" width="56" height="15" rx="7" fill="#ff7f50"/><circle cx="100" cy="112" r="5" fill="#ff6347"/></svg>