<svg xmlns="http://www.w3.org/2000/svg" viewBox="0 0 200 200"><!-- Maine Coon - big fluffy --><ellipse cx="100" cy="128" rx="52" ry="52" fill="#b8956a"/><circle cx="100" cy="72" r="46" fill="#c8a878"/><!-- ears with tufts --><polygon points="63,48 48,14 80,38" fill="#c8a878"/><polygon points="137,48 152,14 120,38" fill="#c8a878"/><polygon points="67,43 55,24 77,38" fill="#e8c8a0"/><polygon points="133,43 145,24 123,38" fill="#e8c8a0"/><path d="M55,16 L58,6" stroke="#c8a878" stroke-width="2" stroke-linecap="round"/><path d="M50,18 L52,8" stroke="#c8a878" stroke-width="2" stroke-linecap="round"/><path d="M145,16 L148,6" stroke="#c8a878" stroke-width="2" stroke-linecap="round"/><path d="M150,18 L152,8" stroke="#c8a878" stroke-width="2" stroke-linecap="round"/><!-- eyes --><circle cx="82" cy="66" r="11" fill="#fff"/><circle cx="118" cy="66" r="11" fill="#fff"/><circle cx="83" cy="65" r="7" fill="#f0c840"/><circle cx="117" cy="65" r="7" fill="#f0c840"/><ellipse cx="83" cy="64" rx="3" ry="5" fill="#111"/><ellipse cx="117" cy="64" rx="3" ry="5" fill="#111"/><!-- nose --><ellipse cx="100" cy="79" rx="5" ry="3.5" fill="#e8a8a0"/><!-- serious mouth --><path d="M92,84 L108,84" stroke="#8a6a48" stroke-width="1.5"/><path d="M92,84 Q100,90 108,84" fill="none" stroke="#8a6a48" stroke-width="1.2"/><!-- majestic ruff (neck floof) --><ellipse cx="100" cy="100" rx="40" ry="16" fill="#d8b888"/><ellipse cx="100" cy="96" rx="35" ry="12" fill="#e8c8a0"/><!-- whiskers --><line x1="68" y1="76" x2="18" y2="68" stroke="#9a7a58" stroke-width="1"/><line x1="68" y1="80" x2="16" y2="84" stroke="#9a7a58" stroke-width="1"/><line x1="132" y1="76" x2="182" y2="68" stroke="#9a7a58" stroke-width="1"/><line x1="132" y1="80" x2="184" y2="84" stroke="#9a7a58" stroke-width="1"/><!-- paws --><ellipse cx="72" cy="172" rx="15" ry="9" fill="#c8a878"/><ellipse cx="128" cy="172" rx="15" ry="9" fill="#c8a878"/><!-- bell collar (target) --><rect x="70" y="108" width="60" height="10" rx="5" fill="#3498db"/><circle cx="100" cy="113" r="5" fill="#ffd700"/><circle cx="100" cy="116" r="2" fill="#e8a020"/><line x1="88" y1="108" x2="88" y2="118" stroke="#2980b9" stroke-width="1.5"/><line x1="112" y1="108" x2="112" y2="118" stroke="#2980b9" stroke-width="1.5"/></svg>