<svg xmlns="http://www.w3.org/2000/svg" viewBox="0 0 200 200"><!-- White Persian Fluffy --><ellipse cx="100" cy="125" rx="55" ry="50" fill="#f0ebe3"/><circle cx="100" cy="72" r="48" fill="#f5f0e8"/><!-- fluffy cheeks --><ellipse cx="58" cy="80" rx="18" ry="16" fill="#f5f0e8"/><ellipse cx="142" cy="80" rx="18" ry="16" fill="#f5f0e8"/><!-- ears with fluff --><polygon points="62,45 48,15 78,38" fill="#f5f0e8"/><polygon points="138,45 152,15 122,38" fill="#f5f0e8"/><polygon points="65,40 55,22 75,38" fill="#fcead8"/><polygon points="135,40 145,22 125,38" fill="#fcead8"/><!-- eyes --><circle cx="80" cy="68" r="12" fill="#fff"/><circle cx="120" cy="68" r="12" fill="#fff"/><circle cx="82" cy="67" r="7" fill="#87ceeb"/><circle cx="118" cy="67" r="7" fill="#87ceeb"/><circle cx="84" cy="65" r="4" fill="#222"/><circle cx="116" cy="65" r="4" fill="#222"/><!-- tiny pink nose --><ellipse cx="100" cy="80" rx="4" ry="3" fill="#f5b0b0"/><!-- mouth --><path d="M95,84 Q100,89 105,84" fill="none" stroke="#d0b8a0" stroke-width="1.5"/><!-- fluffy chest --><ellipse cx="100" cy="108" rx="30" ry="18" fill="#fcead8"/><!-- sky blue hair bow (target) --><polygon points="72,48 88,60 85,70 72,65" fill="#87ceeb"/><polygon points="128,48 112,60 115,70 128,65" fill="#87ceeb"/><circle cx="100" cy="58" r="5" fill="#5dade2"/></svg>