<svg xmlns="http://www.w3.org/2000/svg" viewBox="0 0 200 200"><!-- Tabby Cat - body --><ellipse cx="100" cy="130" rx="50" ry="55" fill="#d4a357"/><ellipse cx="100" cy="130" rx="40" ry="45" fill="#e8c282"/><circle cx="100" cy="75" r="45" fill="#e8c282"/><ellipse cx="100" cy="75" rx="38" ry="40" fill="#f0d69a"/><!-- ears --><polygon points="65,50 55,15 85,40" fill="#e8c282"/><polygon points="135,50 145,15 115,40" fill="#e8c282"/><polygon points="70,45 62,25 82,40" fill="#f5a0a0"/><polygon points="130,45 138,25 118,40" fill="#f5a0a0"/><!-- face --><circle cx="82" cy="70" r="5" fill="#2a2a2a"/><circle cx="118" cy="70" r="5" fill="#2a2a2a"/><ellipse cx="100" cy="82" rx="8" ry="5" fill="#f5a0a0"/><ellipse cx="100" cy="82" rx="5" ry="3" fill="#4a4a4a"/><!-- stripes --><path d="M80,50 L85,65 L90,50" fill="none" stroke="#b8862d" stroke-width="2.5"/><path d="M110,50 L115,65 L120,50" fill="none" stroke="#b8862d" stroke-width="2.5"/><path d="M95,48 L100,65 L105,48" fill="none" stroke="#b8862d" stroke-width="2.5"/><!-- whiskers --><line x1="70" y1="78" x2="20" y2="72" stroke="#888" stroke-width="1"/><line x1="70" y1="82" x2="18" y2="85" stroke="#888" stroke-width="1"/><line x1="130" y1="78" x2="180" y2="72" stroke="#888" stroke-width="1"/><line x1="130" y1="82" x2="182" y2="85" stroke="#888" stroke-width="1"/><!-- paws --><ellipse cx="75" cy="175" rx="14" ry="8" fill="#f0d69a"/><ellipse cx="125" cy="175" rx="14" ry="8" fill="#f0d69a"/><!-- blue striped tie (target) --><polygon points="82,108 100,116 118,108 118,126 100,118 82,126" fill="#2980b9"/><polygon points="86,110 98,115 86,122" fill="#1a5276"/><polygon points="114,110 102,115 114,122" fill="#1a5276"/></svg>